<svg xmlns="http://www.w3.org/2000/svg" viewBox="0 0 16 20"><defs><style>.a{fill:#fff;}</style></defs><title>display-med</title><path class="a" d="M14.5,20H1.5A1.5,1.5,0,0,1,0,18.5V1.5A1.5,1.5,0,0,1,1.5,0h13A1.5,1.5,0,0,1,16,1.5v17A1.5,1.5,0,0,1,14.5,20ZM1.5,1a.5.5,0,0,0-.5.5v17a.5.5,0,0,0,.5.5h13a.5.5,0,0,0,.5-.5V1.5a.5.5,0,0,0-.5-.5Z"/><path class="a" d="M8.5,18h-1a.5.5,0,0,1,0-1h1a.5.5,0,0,1,0,1Z"/><path class="a" d="M13.5,16H2.5a.5.5,0,0,1-.5-.5V2.5A.5.5,0,0,1,2.5,2h11a.5.5,0,0,1,.5.5v13A.5.5,0,0,1,13.5,16ZM3,15H13V3H3Z"/></svg>