<svg xmlns="http://www.w3.org/2000/svg" viewBox="0 0 12 20"><defs><style>.a{fill:#fff;}</style></defs><title>display-sml</title><path class="a" d="M6.5,18h-1a.5.5,0,0,1,0-1h1a.5.5,0,0,1,0,1Z"/><path class="a" d="M10.5,20h-9A1.5,1.5,0,0,1,0,18.5V1.5A1.5,1.5,0,0,1,1.5,0h9A1.5,1.5,0,0,1,12,1.5v17A1.5,1.5,0,0,1,10.5,20ZM1.5,1a.5.5,0,0,0-.5.5v17a.5.5,0,0,0,.5.5h9a.5.5,0,0,0,.5-.5V1.5a.5.5,0,0,0-.5-.5Z"/><path class="a" d="M9.5,16h-7a.5.5,0,0,1-.5-.5V2.5A.5.5,0,0,1,2.5,2h7a.5.5,0,0,1,.5.5v13A.5.5,0,0,1,9.5,16ZM3,15H9V3H3Z"/></svg>