<svg xmlns="http://www.w3.org/2000/svg" viewBox="0 0 19 19"><defs><style>.a{fill:#fff;}</style></defs><title>lights</title><path class="a" d="M9.5,14A4.49,4.49,0,1,1,14,9.5,4.49,4.49,0,0,1,9.5,14Zm0-8A3.49,3.49,0,1,0,13,9.5,3.49,3.49,0,0,0,9.5,6Z"/><path class="a" d="M9.5,4A.5.5,0,0,1,9,3.5V.5a.5.5,0,0,1,1,0v3A.5.5,0,0,1,9.5,4Z"/><path class="a" d="M9.5,19a.5.5,0,0,1-.5-.5v-3a.5.5,0,0,1,1,0v3A.5.5,0,0,1,9.5,19Z"/><path class="a" d="M3.5,10H.5a.5.5,0,0,1,0-1h3a.5.5,0,0,1,0,1Z"/><path class="a" d="M18.5,10h-3a.5.5,0,0,1,0-1h3a.5.5,0,0,1,0,1Z"/><path class="a" d="M4.5,5a.47.47,0,0,1-.35-.15l-2-2a.49.49,0,0,1,.7-.7l2,2A.5.5,0,0,1,4.5,5Z"/><path class="a" d="M2.5,17a.47.47,0,0,1-.35-.15.48.48,0,0,1,0-.7l2-2a.49.49,0,0,1,.7.7l-2,2A.49.49,0,0,1,2.5,17Z"/><path class="a" d="M16.5,17a.47.47,0,0,1-.35-.15l-2-2a.49.49,0,0,1,.7-.7l2,2a.48.48,0,0,1,0,.7.47.47,0,0,1-.35.15Z"/><path class="a" d="M14.5,5a.47.47,0,0,1-.35-.15.48.48,0,0,1,0-.7l2-2a.49.49,0,0,1,.7.7l-2,2A.47.47,0,0,1,14.5,5Z"/></svg>