<svg xmlns="http://www.w3.org/2000/svg" viewBox="0 0 161.58 27.58"><defs><style>.a{fill:#fff;}</style></defs><title>logo</title><path class="a" d="M3.12,14.62A4.35,4.35,0,0,0,7.67,19a4,4,0,0,0,3.92-2.07h3.13c-.79,2.21-2.84,4.51-7.17,4.51C2.27,21.39,0,17.63,0,13.92A7.17,7.17,0,0,1,7.49,6.37c5.44,0,7.42,3.92,7.42,7.45,0,.27,0,.48,0,.8Zm8.57-2.11a3.83,3.83,0,0,0-4.22-3.8,4,4,0,0,0-4.29,3.8Z"/><path class="a" d="M31.22,17.37c0,1.49.09,3.31.13,3.63h-3a13.21,13.21,0,0,1-.17-2c-.75,1.42-2.37,2.36-5.31,2.36-4,0-5.49-2.42-5.49-4.59,0-3.67,3.3-4.68,7.4-4.68h3.35v-.69c0-1.45-.63-2.78-3.43-2.78-2.54,0-3.13,1.08-3.39,2.27H18.23c.16-1.86,1.42-4.55,6.48-4.55,5.43,0,6.51,2.62,6.51,5Zm-3-3.12c-.42,0-1.38,0-3.29,0-3,0-4.4.7-4.4,2.41,0,1.3,1,2.38,3.15,2.38,3.47,0,4.54-1.94,4.54-4.25Z"/><path class="a" d="M35.73,10.63c0-1.28,0-2.58,0-3.87h3c0,.44.11,2,.11,3.12a5.76,5.76,0,0,1,5.7-3.5V9.32c-3.26,0-5.7,1.76-5.7,5.92V21H35.73Z"/><path class="a" d="M46.44,6.76H49.2V2.27h3.14V6.76H56V9.15H52.34v7.36c0,1.53.37,2.22,1.88,2.22a6.26,6.26,0,0,0,1.36-.12v2.24a7.53,7.53,0,0,1-2.37.28c-3.08,0-4-1.37-4-4.16V9.15H46.44Z"/><path class="a" d="M62,0V9.13c.51-1,1.81-2.76,5.13-2.76s5.45,2,5.45,6.05V21H69.44V12.84c0-2.25-.77-3.92-3.28-3.92C63.37,8.92,62,11.13,62,14v7H58.9V0Z"/><path class="a" d="M76.59,21V16.11H80.1V21Z"/><path class="a" d="M94.14,6.38a3.4,3.4,0,0,0-3.53-2.22C87.29,4.16,86.15,7,86,10.71a6.11,6.11,0,0,1,5.35-2.53c3.88,0,6.49,2.47,6.49,6.21,0,4.4-3.12,7-7.37,7-4.77,0-7.65-3.3-7.65-9.6,0-4.87,1.9-10.07,7.91-10.07,4.26,0,6.1,2.51,6.44,4.67Zm.55,8.23c0-2.26-1.29-4-4.09-4s-4.32,1.84-4.32,3.74c0,1.34.86,4.47,4.24,4.47A3.9,3.9,0,0,0,94.69,14.61Z"/><path class="a" d="M101.26,21V0h3.13V21Z"/><path class="a" d="M110.69,6.76c2.89,6.79,4.39,10.65,4.78,11.81h0c.47-1.41,1.84-5.42,4.37-11.81h3.22L117.73,20c-2.51,6.18-3.39,7.62-7.28,7.62a12.19,12.19,0,0,1-1.94-.16V24.76a13.53,13.53,0,0,0,1.53.1c1.93,0,2.59-.75,3.76-3.23L107.26,6.76Z"/><path class="a" d="M123.74,21V16.11h3.51V21Z"/><path class="a" d="M145.2,16.46c-.67,2.61-2.93,4.93-7.12,4.93-5.17,0-7.6-3.42-7.6-7.48a7.28,7.28,0,0,1,7.63-7.54c5,0,6.76,3.2,7,5H142a3.8,3.8,0,0,0-3.94-2.56c-2.84,0-4.42,2.11-4.42,5s1.51,5.05,4.42,5.05a3.93,3.93,0,0,0,4-2.46Z"/><path class="a" d="M161.45,17.37c0,1.49.08,3.31.13,3.63h-3a13.19,13.19,0,0,1-.16-2c-.76,1.42-2.38,2.36-5.31,2.36-4,0-5.5-2.42-5.5-4.59,0-3.67,3.3-4.68,7.4-4.68h3.35v-.69c0-1.45-.62-2.78-3.43-2.78-2.54,0-3.13,1.08-3.38,2.27h-3.13c.16-1.86,1.42-4.55,6.49-4.55,5.42,0,6.51,2.62,6.51,5Zm-3.06-3.12c-.41,0-1.37,0-3.28,0-3,0-4.41.7-4.41,2.41,0,1.3,1,2.38,3.16,2.38,3.46,0,4.53-1.94,4.53-4.25Z"/></svg>