<svg xmlns="http://www.w3.org/2000/svg" viewBox="0 0 20 20"><defs><style>.a{fill:#fff;}</style></defs><title>theme</title><path class="a" d="M17.07,2.93A10,10,0,1,0,2.93,17.07,10,10,0,1,0,17.07,2.93ZM18.4,6.76c-.2-.35-.69-.52-1.33-.73s-.93-.94-1.21-1.76a3.77,3.77,0,0,0-1.09-1.9A9.06,9.06,0,0,1,18.4,6.76Zm-2.81,3.43a2.49,2.49,0,0,1-.69,2.32,3.28,3.28,0,0,0-.5,1c-.32.87-.63,1.69-1.94,1.71a1.78,1.78,0,0,1-.24-.74c-.08-.48-.13-1.1-.18-1.76a18.64,18.64,0,0,0-.43-3.11A2.78,2.78,0,0,0,10,7.4a3.14,3.14,0,0,0-1.06-.17c-.28,0-.53,0-.76,0a4.26,4.26,0,0,1-.47,0h0c-.24,0-.5,0-.83-.74A3.16,3.16,0,0,1,8.11,2.87a3.26,3.26,0,0,1,1.74-.71,2.92,2.92,0,0,1,1.34.43,3.15,3.15,0,0,0,1.58.4h.74a.93.93,0,0,1,.61.17,2.9,2.9,0,0,1,.79,1.45A3.22,3.22,0,0,0,16.75,7l.61.23c-.16.16-.43.41-.7.65s-.37.32-.58.52a1.89,1.89,0,0,0-.49,1.82ZM1,9.92l.35.07a4,4,0,0,1,.94.29,3.64,3.64,0,0,1-.24.35,1.64,1.64,0,0,0-.43,1.27A2.08,2.08,0,0,1,1.51,13,8.94,8.94,0,0,1,1,10V9.92ZM10,19a9,9,0,0,1-7.93-4.75,4.06,4.06,0,0,0,.52-2.57,2.29,2.29,0,0,1,.28-.47c.27-.38.61-.86.36-1.37-.18-.35-.64-.59-1.57-.8l-.6-.12A9,9,0,0,1,10,1a8.89,8.89,0,0,1,4.35,1.13A2.05,2.05,0,0,0,13.51,2l-.37,0h-.37a2.21,2.21,0,0,1-1.11-.28,3.73,3.73,0,0,0-1.81-.55A4.17,4.17,0,0,0,7.56,2,4.24,4.24,0,0,0,5.85,4.32,3.79,3.79,0,0,0,5.94,7,1.81,1.81,0,0,0,7.68,8.32h0c.19,0,.39,0,.59,0a4.34,4.34,0,0,1,.63,0,2.37,2.37,0,0,1,.76.12c.43.14.76.63,1,1.5A19,19,0,0,1,11,12.78a16.14,16.14,0,0,0,.25,2.16,2.72,2.72,0,0,0,.32.81,1,1,0,0,0,.82.45,2.68,2.68,0,0,0,2.09-.84,4.61,4.61,0,0,0,.82-1.51,2.66,2.66,0,0,1,.31-.67,3.49,3.49,0,0,0,.93-3.1c-.06-.56-.06-.76.17-1l.57-.52c.36-.32.63-.56.81-.76A1,1,0,0,0,18.47,7h0A9,9,0,0,1,10,19Z"/></svg>